<svg width="15" height="18" viewBox="0 0 15 18" fill="none" xmlns="http://www.w3.org/2000/svg">
<path d="M12.0382 9.05454C12.023 8.38928 12.1939 7.73299 12.5318 7.15973C12.8697 6.58647 13.3611 6.11904 13.9505 5.81018C13.5791 5.29468 13.0933 4.87231 12.5311 4.57627C11.9689 4.28022 11.3457 4.11857 10.7105 4.104C9.35236 3.99491 7.86873 4.896 7.32873 4.896C6.75491 4.896 5.43927 4.14218 4.40618 4.14218C2.268 4.17709 0 5.84509 0 9.23782C0.00817385 10.2962 0.192513 11.3458 0.545455 12.3436C1.03527 13.7476 2.80255 17.1905 4.64618 17.1327C5.61055 17.1098 6.29127 16.4476 7.54582 16.4476C8.76218 16.4476 9.39382 17.1327 10.4684 17.1327C12.3229 17.1055 13.9265 13.9767 14.3956 12.5695C13.6978 12.2843 13.1008 11.7976 12.6809 11.1715C12.261 10.5454 12.0372 9.80839 12.0382 9.05454ZM9.87273 2.77309C10.2111 2.40072 10.4677 1.96155 10.6259 1.4839C10.7841 1.00626 10.8405 0.500754 10.7913 0C9.78969 0.107114 8.86379 0.583087 8.19382 1.33527C7.85012 1.70171 7.58557 2.13502 7.41665 2.60817C7.24774 3.08133 7.17807 3.5842 7.212 4.08545C7.72833 4.09667 8.23975 3.98324 8.70292 3.75479C9.16609 3.52634 9.56736 3.18959 9.87273 2.77309Z" fill="#243443"/>
</svg>
