<svg width="30" height="30" viewBox="0 0 30 30" fill="none" xmlns="http://www.w3.org/2000/svg">
<circle cx="15" cy="15" r="15" transform="rotate(-180 15 15)" fill="#E5F1FF"/>
<path fill-rule="evenodd" clip-rule="evenodd" d="M20.6001 16.5C21.3732 16.5 22 15.8284 22 15C22 14.1715 21.3732 13.5 20.6001 13.5L12.7797 13.5L14.5897 11.5606C15.1364 10.9749 15.1364 10.0251 14.5897 9.43931C14.0429 8.85356 13.1566 8.85356 12.6097 9.43931L8.40991 13.9393C8.14742 14.2206 8 14.6022 8 15C8 15.3978 8.14742 15.7794 8.40991 16.0606L12.6097 20.5607C13.1566 21.1464 14.0429 21.1464 14.5897 20.5607C15.1364 19.9749 15.1364 19.0251 14.5897 18.4393L12.7797 16.5L20.6001 16.5Z" fill="#377DFF"/>
</svg>
